<?xml version="1.0" encoding="utf-8"?>
<!-- Generator: Adobe Illustrator 19.2.1, SVG Export Plug-In . SVG Version: 6.00 Build 0)  -->
<svg version="1.1" id="layer" xmlns="http://www.w3.org/2000/svg" xmlns:xlink="http://www.w3.org/1999/xlink" x="0px" y="0px"
	 viewBox="0 0 652 652" style="enable-background:new 0 0 652 652;" xml:space="preserve">
<style type="text/css">
	.st0{fill:#CC0000;}
	.st1{fill:#231815;}
</style>
<g>
	<path class="st0" d="M56.2,278.4v15.8H43.6v-15.8H20.4v42.2h23.2v-15.8h12.7v15.8h23.2v-42.2H56.2z M129.2,320.6h23.2L137,278.4
		H98.1l-15.4,42.2h23.2l2-5.3h19.4L129.2,320.6z M111.7,304.8l5.9-16.1l5.8,16.1H111.7z M279.1,320.6h23.2L287,278.4h-38.9
		l-15.4,42.2h23.2l2-5.3h19.4L279.1,320.6z M261.7,304.8l5.8-16.1l5.9,16.1H261.7z M429.1,320.6h23.2l-15.3-42.2H398l-15.3,42.2
		h23.2l2-5.3h19.4L429.1,320.6z M411.7,304.8l5.8-16.1l5.9,16.1H411.7z M496.8,278.4h-52.9V289h14.8v31.7h23.2V289h14.9V278.4z
		 M203.5,278.4l-11,23.6l-11.1-23.6h-25.9v42.2h23.2v-18.1l8.4,18.1h10.6l8.4-17.9v17.9h23.2v-42.2H203.5z M353.7,278.4L342.6,302
		l-11.1-23.6h-25.9v42.2h23.2v-18.1l8.4,18.1h10.6l8.4-17.9v17.9h23.2v-42.2H353.7L353.7,278.4z M545.4,293.2h-19.1
		c-2.9,0-4.1-1.5-4.1-3.2s1.3-3.2,4.2-3.2s4.1,1.3,4.2,3h25.5c0-7.5-4.2-11.6-12.7-11.6h-29.7c-10.6,0-14.8,7.4-14.8,13.7
		c0,6.3,3.2,13.7,12.7,13.7h16.8c2.9,0,4.2,1.5,4.2,3.2c0,1.7-1.3,3.2-4.2,3.2s-4.1-1.3-4.2-3H499c0,7.4,4.2,11.6,12.7,11.6h31.7
		c12.9,0,14.8-7.3,14.8-13.7C558.1,300.6,556,293.2,545.4,293.2z M597.1,278.4v27.4c0,3.5-2.8,6.3-6.3,6.3c-3.5,0-6.3-2.8-6.3-6.3
		v-27.4h-23.2v27.4c0,10.6,10.6,14.8,23.2,14.8h12.7c12.7,0,23.2-4.2,23.2-14.8v-27.4H597.1z"/>
</g>
<path class="st1" d="M20.4,346.9h4.9c3.8,0,6.9,1.3,6.9,5.5s-3.2,5.4-6.5,5.4H23v7.4h-2.6V346.9z M23,355.6h2.6
	c1.8,0.2,3.5-1.1,3.7-2.9c0-0.1,0-0.3,0-0.4c0-2.4-2.4-3.2-4.1-3.2H23V355.6z M48.6,365.2h2.6v-8.3h8.8v8.4h2.6v-18.5h-2.6v7.7h-8.7
	v-7.7h-2.6L48.6,365.2z M88.8,346.5c5.5,0,8.8,4.1,8.8,9.5s-3.3,9.5-8.8,9.5c-5.5,0-8.8-4-8.8-9.5S83.3,346.5,88.8,346.5
	 M88.8,363.3c4.2,0,6.1-3.6,6.1-7.3s-2-7.3-6.1-7.3s-6.1,3.4-6.1,7.3S84.6,363.3,88.8,363.3 M118.5,365.2h2.6v-16.1h5.7v-2.2h-14.1
	v2.4h5.7L118.5,365.2z M150.7,346.5c5.5,0,8.8,4.1,8.8,9.5s-3.3,9.5-8.8,9.5s-8.8-4-8.8-9.5S145.2,346.5,150.7,346.5 M150.7,363.3
	c4.2,0,6.1-3.6,6.1-7.3s-2-7.3-6.1-7.3s-6.1,3.4-6.1,7.3S146.5,363.3,150.7,363.3 M176.7,365.2h2.6v-15.2l8.3,15.2h3.4v-18.5h-2.6
	v14.9l-8.2-14.8h-3.6L176.7,365.2z M229.8,365.2h2.6v-18.5h-2.6V365.2z M259.2,347.2c-1.3-0.4-2.6-0.7-4-0.7c-3.3,0-5.9,1.7-5.9,5
	c0,5.7,7.9,4.6,7.9,8.7s-2.1,3-3.6,3c-1.3-0.1-2.6-0.4-3.8-0.9l-0.3,2.5c1.2,0.5,2.5,0.7,3.8,0.8c3.7,0,6.7-1.6,6.7-5.5
	c0-6.1-7.9-5.3-7.9-8.8c0-3.6,1.7-2.5,3.2-2.5c1.2,0,2.4,0.3,3.4,0.8L259.2,347.2z M305.6,346.5c5.5,0,8.8,4.1,8.8,9.5
	s-3.3,9.5-8.8,9.5s-8.8-4-8.8-9.5S300.1,346.5,305.6,346.5 M305.6,363.3c4.2,0,6.1-3.6,6.1-7.3s-2-7.3-6.1-7.3s-6.1,3.4-6.1,7.3
	S301.4,363.3,305.6,363.3 M345.9,346.9h-2.6v10.4c0,3.6-1.1,5.9-4.5,5.9s-4.5-2.4-4.5-5.9v-10.4h-2.6v10.7c0,5.1,2.6,7.9,7.1,7.9
	c4.5,0,7.1-2.8,7.1-7.9V346.9z M363.8,346.9h4.5c3.7,0,7.1,0.5,7.1,5c0,2.2-1.7,4-3.8,4.2c0.8,0.3,1.2,0.7,1.8,1.8l3.4,7.4H374
	l-2.9-6.5c-0.8-1.8-1.7-1.8-3-1.8h-1.6v8.2h-2.6V346.9z M366.5,354.8h2.2c2.5,0,4-1.1,4-2.9s-1.3-2.8-3.7-2.8h-2.5L366.5,354.8z
	 M414,346.9h5c3.8,0,6.5,1.2,6.5,4.6c0,3.4-1.5,3.8-3.8,4.4c2.4,0.1,4.3,2.1,4.2,4.5c0,0,0,0,0,0c0,4-3.3,4.9-7,4.9H414V346.9z
	 M416.6,354.8h1.5c2.5,0,4.8-0.3,4.8-2.9s-1.8-2.8-3.4-2.8h-2.8V354.8z M416.6,363.3h2c2.4,0,4.5-0.5,4.5-3s-2.5-3.3-4.8-3.3h-1.7
	V363.3z M457.9,347h-2.6v10.4c0,3.6-1.1,5.9-4.5,5.9s-4.5-2.4-4.5-5.9v-10.6h-2.6v10.7c0,5.1,2.6,7.9,7.1,7.9c4.5,0,7.1-2.8,7.1-7.9
	V347z M484.7,347.4c-1.3-0.4-2.6-0.7-4-0.7c-3.3,0-5.9,1.7-5.9,5c0,5.7,7.9,4.6,7.9,8.7s-2.1,3-3.6,3c-1.3-0.1-2.6-0.4-3.8-0.9
	l-0.3,2.5c1.2,0.5,2.5,0.7,3.8,0.8c3.7,0,6.7-1.6,6.7-5.5c0-6.1-7.9-5.3-7.9-8.8c0-3.6,1.7-2.5,3.2-2.5c1.2,0,2.4,0.3,3.4,0.8
	L484.7,347.4z M502.5,365.5h2.6V347h-2.6V365.5z M523.1,365.5h2.6v-15.4l8.3,15.2h3.6v-18.5H535v14.9l-8.2-14.8h-3.7V365.5z
	 M555.7,365.5H566V363h-7.7v-6.1h7v-2.4h-7v-5.4h7.7v-2.2h-10.3V365.5z M592.2,347.4c-1.3-0.4-2.6-0.7-4-0.7c-3.3,0-5.9,1.7-5.9,5
	c0,5.7,7.9,4.6,7.9,8.7s-2.1,3-3.6,3c-1.3-0.1-2.6-0.4-3.8-0.9l-0.3,2.5c1.2,0.5,2.5,0.7,3.8,0.8c3.7,0,6.7-1.6,6.7-5.5
	c0-6.1-7.9-5.3-7.9-8.8c0-3.6,1.7-2.5,3.2-2.5c1.2,0,2.4,0.3,3.4,0.8L592.2,347.4z M618.8,347.4c-1.3-0.4-2.6-0.7-4-0.7
	c-3.3,0-5.9,1.7-5.9,5c0,5.7,7.9,4.6,7.9,8.7s-2.1,3-3.6,3c-1.3-0.1-2.6-0.4-3.8-0.9l-0.3,2.5c1.2,0.5,2.5,0.7,3.8,0.8
	c3.7,0,6.7-1.6,6.7-5.5c0-6.1-7.9-5.3-7.9-8.8c0-3.6,1.7-2.5,3.2-2.5c1.2,0,2.4,0.3,3.4,0.8L618.8,347.4z"/>
</svg>
