<svg xmlns="http://www.w3.org/2000/svg" width="190" height="36" viewBox="0 0 190 36">
    <g fill="none" fill-rule="evenodd">
        <path fill="#000" d="M156.705 7.747c1.203 0 2.349.226 3.434.678a8.365 8.365 0 0 1 2.866 1.979c.824.866 1.472 1.932 1.943 3.2.471 1.267.707 2.714.707 4.344 0 1.629-.236 3.077-.707 4.344-.47 1.267-1.112 2.333-1.924 3.2a8.204 8.204 0 0 1-2.826 1.978 8.698 8.698 0 0 1-3.415.679c-1.544 0-2.86-.317-3.945-.95-1.087-.634-1.97-1.416-2.65-2.347v10.55h-5.181V8.25h5.18v2.715a7.764 7.764 0 0 1 2.71-2.347c1.1-.581 2.368-.872 3.808-.872zm23.985 0c1.204 0 2.35.226 3.434.678a8.358 8.358 0 0 1 2.866 1.979c.825.866 1.472 1.932 1.943 3.2.471 1.267.707 2.714.707 4.344 0 1.629-.236 3.077-.707 4.344-.471 1.267-1.112 2.333-1.923 3.2a8.2 8.2 0 0 1-2.827 1.978 8.696 8.696 0 0 1-3.415.679c-1.544 0-2.859-.317-3.945-.95-1.086-.634-1.97-1.416-2.65-2.347v10.55h-5.181V8.25h5.182v2.715a7.75 7.75 0 0 1 2.708-2.347c1.1-.581 2.369-.872 3.808-.872zm-99.2.038c1.492 0 2.84.246 4.044.737 1.204.492 2.224 1.183 3.062 2.076.838.892 1.478 1.978 1.923 3.258.445 1.28.668 2.695.668 4.247v1.396H76.74l.04.078c.157.646.412 1.202.766 1.668a4.98 4.98 0 0 0 2.787 1.842 6.948 6.948 0 0 0 1.707.213c1.178 0 2.231-.18 3.16-.543.929-.362 1.734-.84 2.414-1.435l2.16 4.228c-.812.672-1.845 1.267-3.102 1.784-1.256.517-2.826.776-4.71.776-1.649 0-3.128-.26-4.436-.776-1.309-.517-2.414-1.228-3.317-2.133a9.037 9.037 0 0 1-2.061-3.22c-.471-1.24-.706-2.586-.706-4.033 0-1.423.235-2.754.706-3.996a9.68 9.68 0 0 1 2.002-3.238c.864-.918 1.917-1.636 3.16-2.153 1.243-.517 2.637-.776 4.18-.776zm22.22 0c1.57 0 2.983.253 4.24.757 1.256.504 2.328 1.195 3.218 2.075l-2.944 4.111a7.7 7.7 0 0 0-1.923-1.376c-.733-.376-1.597-.563-2.592-.563a5.55 5.55 0 0 0-2.04.369 4.745 4.745 0 0 0-1.63 1.047 4.885 4.885 0 0 0-1.08 1.629c-.26.634-.392 1.338-.392 2.114 0 .775.131 1.48.392 2.113a4.885 4.885 0 0 0 1.08 1.63c.458.452 1.001.801 1.63 1.047a5.55 5.55 0 0 0 2.04.368c.995 0 1.878-.194 2.65-.581a7.736 7.736 0 0 0 1.982-1.397l2.866 4.112c-.837.827-1.897 1.513-3.18 2.055-1.282.543-2.747.815-4.396.815-1.492 0-2.879-.24-4.16-.718-1.283-.478-2.382-1.163-3.299-2.055a9.629 9.629 0 0 1-2.158-3.2c-.524-1.242-.786-2.638-.786-4.19 0-1.525.262-2.915.786-4.17a9.443 9.443 0 0 1 2.178-3.218c.93-.893 2.035-1.578 3.317-2.056 1.283-.479 2.682-.717 4.2-.717zm28.302.04c2.88 0 5.031.633 6.458 1.9 1.426 1.267 2.14 3.258 2.14 5.973v11.985h-5.182v-2.638c-.524.776-1.276 1.475-2.257 2.095-.982.62-2.244.931-3.789.931-.968 0-1.858-.148-2.669-.446a6.383 6.383 0 0 1-2.1-1.241 5.564 5.564 0 0 1-1.374-1.9c-.327-.737-.49-1.559-.49-2.463 0-.88.156-1.675.47-2.386a5.48 5.48 0 0 1 1.315-1.842 6.888 6.888 0 0 1 1.983-1.261 8.116 8.116 0 0 1 2.512-.601l5.378-.466c.68-.077 1.02-.336 1.02-.776v-.31c0-.569-.274-1.034-.824-1.396-.55-.362-1.413-.543-2.59-.543-.524 0-1.034.045-1.531.136-.497.09-.968.233-1.414.426a4.256 4.256 0 0 0-1.177.757c-.34.31-.602.698-.785 1.163l-3.847-2.715c.654-1.474 1.74-2.573 3.258-3.297 1.518-.724 3.35-1.086 5.495-1.086zm-88.404.426l4.397 11.559 4.671-11.56h4.201l4.71 11.56 4.357-11.56h5.654l-7.97 19.394h-3.924l-4.907-11.519-4.947 11.52h-3.925L37.956 8.25h5.652zM119.373.493v27.151h-5.221V.494h5.22zm16.055 18.54l-4.868.582c-.811.13-1.42.382-1.825.757a1.803 1.803 0 0 0-.609 1.377c0 .62.236 1.118.707 1.493.47.375 1.165.562 2.08.562.68 0 1.302-.11 1.865-.33.563-.219 1.04-.51 1.433-.872a3.743 3.743 0 0 0 1.217-2.792v-.777zm19.745-6.283c-1.465 0-2.688.466-3.67 1.397-.98.93-1.472 2.198-1.472 3.8 0 1.63.491 2.903 1.472 3.821.982.918 2.205 1.377 3.67 1.377a5.55 5.55 0 0 0 2.042-.368 4.745 4.745 0 0 0 1.629-1.048 4.826 4.826 0 0 0 1.08-1.648 5.635 5.635 0 0 0 .392-2.133 5.63 5.63 0 0 0-.393-2.133 4.828 4.828 0 0 0-1.08-1.65c-.457-.452-1-.8-1.628-1.046a5.55 5.55 0 0 0-2.042-.369zm23.986 0c-1.466 0-2.689.466-3.671 1.397-.98.93-1.472 2.198-1.472 3.8 0 1.63.492 2.903 1.472 3.821.982.918 2.205 1.377 3.67 1.377.734 0 1.414-.123 2.042-.368a4.745 4.745 0 0 0 1.63-1.048 4.841 4.841 0 0 0 1.08-1.648 5.644 5.644 0 0 0 .391-2.133 5.64 5.64 0 0 0-.392-2.133 4.844 4.844 0 0 0-1.08-1.65c-.457-.452-1-.8-1.629-1.046a5.552 5.552 0 0 0-2.041-.369zm-97.825-.62c-1.257 0-2.278.316-3.062.95-.785.633-1.309 1.532-1.57 2.696h8.832c-.131-1.06-.55-1.933-1.257-2.619-.706-.685-1.687-1.028-2.943-1.028z"/>
        <path fill="#00FFB0" d="M16.619 13.632l2.118 14.005c.293 1.292-.64 2.532-1.906 2.532h-4.237c-1.265 0-2.199-1.24-1.906-2.532l2.119-14.005c.346-2.16 3.536-2.112 3.812 0zM6.197 5.726c1.266 0 2.2 1.24 1.906 2.532L5.985 22.264c-.347 2.16-3.537 2.11-3.812 0L.053 8.258C-.238 6.966.696 5.726 1.96 5.726h4.237zm21.268 0c1.265 0 2.198 1.24 1.906 2.532l-2.119 14.006c-.347 2.16-3.536 2.11-3.812 0L21.322 8.258c-.293-1.292.64-2.532 1.905-2.532h4.238z"/>
    </g>
</svg>
